<?xml version="1.0" encoding="utf-8"?>
<svg version="1.1" id="Design" xmlns="http://www.w3.org/2000/svg" xmlns:xlink="http://www.w3.org/1999/xlink" x="0px" y="0px"
     width="96px" height="96px" viewBox="0 0 96 96" style="enable-background:new 0 0 96 96;" xml:space="preserve">
<path d="M48,2C31,2,18,15,18,31c0,12,16,28,16,43v11c0,3.075,3.925,7,7,7h14c3.075,0,7-3.925,7-7V74c0-15,16-31,16-43
	C78,15,65,2,48,2z M55,88H41c-0.897,0-3-2.103-3-3v-2h20v2C58,85.897,55.897,88,55,88z M58,79H38v-5h10h10V79z M58.307,70H58H48H38
	h-0.307c-1.133-7.582-5.197-15.055-8.847-21.766C25.325,41.762,22,35.648,22,31C22,16.981,33.421,6,48,6s26,10.981,26,25
	c0,4.648-3.325,10.762-6.846,17.234C63.504,54.945,59.44,62.418,58.307,70z M52,17c0,1.104-0.896,2-2,2c-7.851,0-15,7.149-15,15
	c0,1.104-0.896,2-2,2s-2-0.896-2-2c0-10.122,8.879-19,19-19C51.104,15,52,15.896,52,17z"/>
</svg>
