<?xml version="1.0" encoding="utf-8"?>
<svg version="1.1" id="Design" xmlns="http://www.w3.org/2000/svg" xmlns:xlink="http://www.w3.org/1999/xlink" x="0px" y="0px"
     width="96px" height="96px" viewBox="0 0 96 96" style="enable-background:new 0 0 96 96;" xml:space="preserve">
<path d="M48,2C22.595,2,2,22.595,2,48s20.595,46,46,46s46-20.595,46-46S73.405,2,48,2z M48,90C24.841,90,6,71.159,6,48
	S24.841,6,48,6s42,18.841,42,42S71.159,90,48,90z M48,10c-20.987,0-38,17.013-38,38s17.013,38,38,38s38-17.013,38-38
	S68.987,10,48,10z M52,81.757V76c0-1.104-0.896-2-2-2h-4c-1.104,0-2,0.896-2,2v5.757c-9.939-1.171-18.578-6.641-24-14.5V54
	c0-1.104-0.896-2-2-2h-3.757C14.089,50.687,14,49.354,14,48s0.089-2.687,0.243-4H18c1.104,0,2-0.896,2-2V28.743
	c5.422-7.859,14.061-13.329,24-14.5V20c0,1.104,0.896,2,2,2h4c1.104,0,2-0.896,2-2v-5.757c9.939,1.171,18.578,6.641,24,14.5V42
	c0,1.104,0.896,2,2,2h3.757C81.911,45.313,82,46.646,82,48s-0.089,2.687-0.243,4H78c-1.104,0-2,0.896-2,2v13.257
	C70.578,75.116,61.939,80.586,52,81.757z M38,48c0,2.761-2.239,5-5,5s-5-2.239-5-5s2.239-5,5-5S38,45.239,38,48z M68,48
	c0,2.761-2.239,5-5,5s-5-2.239-5-5s2.239-5,5-5S68,45.239,68,48z"/>
</svg>
