<?xml version="1.0" encoding="UTF-8"?>
<svg xmlns="http://www.w3.org/2000/svg" xmlns:xlink="http://www.w3.org/1999/xlink" version="1.1" x="0px" y="0px" width="96px" height="96px" viewBox="0 0 96 96" xml:space="preserve">
  <path d="M23,27.5c0,1.933-1.567,3.5-3.5,3.5S16,29.433,16,27.5s1.567-3.5,3.5-3.5S23,25.567,23,27.5z M94,66c0,6.761-5.626,14-14,14  H42h-1H16C9.373,80,4,74.627,4,68V28c0-6.6,5.4-12,12-12h40c6.627,0,12,5.373,12,12v5.121C77.262,34.193,85,42.552,85,52v0.483  C90.23,54.344,94,59.863,94,66z M16,76h15.567C28.737,73.114,27,68.885,27,64c0-5.278,2.826-10.505,7-13.162V50  c0-5.771,4.588-12,12-12c1.918,0,3.195,0.068,5.388,1.277C54.018,35.974,58.843,33.6,64,33.101V28c0-4.411-3.589-8-8-8H16  c-4.411,0-8,3.589-8,8v40C8,72.411,11.589,76,16,76z M90,66c0-4.88-3.178-9.196-7.393-10.039C81.673,55.774,81,54.953,81,54v-2  c0-7.851-7.149-15-15-15c-5.194,0-10.559,2.589-12.211,5.895c-0.257,0.513-0.722,0.892-1.275,1.038  c-0.558,0.146-1.146,0.05-1.623-0.269C48.395,42,47.791,42,46,42c-4.941,0-8,4.152-8,8v2c0,0.758-0.428,1.45-1.105,1.789  C33.534,55.469,31,59.858,31,64c0,6.953,4.206,12,10,12h1h38C85.981,76,90,70.829,90,66z"/>
</svg>
