<?xml version="1.0" encoding="UTF-8"?>
<!-- Created with Inkscape (http://www.inkscape.org/) -->
<svg width="500" height="500" version="1.1" viewBox="0 0 500 500" xml:space="preserve" xmlns="http://www.w3.org/2000/svg"><g transform="matrix(1.3333 0 0 -1.3333 0 316.51)"><g transform="matrix(.12363 0 0 .12363 .81419 -96.86)" stroke-width=".80885"><path d="m120 1476.2c0 126.5 103.5 230 230 230h220c5.5 0 10-4.5 10-10v-220c0-126.5-103.5-230-230-230h-220c-5.5 0-10 4.5-10 10zm-100-930c50 0 100 40 100 80v490c0 5.16 4.828 10 10 10h220c192.5 0 350 157.5 350 350v310c0 22-18 40-40 40h-310c-192.5 0-350-157.5-350-350v-910s0-20 20-20zm970 371.49c0-40-50-80-100-80-20 0-20 20-20 20v1280c0 150 120 215.69 170 230 34.24 8.95 51.86 10.16 60-10 11.21-26.87-8.31-40.56-20-50-11.65-9.46-90-50-90-170zm870 268.51v-40c0-10-10-20-20-20h-540c-10 0-9.32-10.26-5.67-20.08 32.52-87.54 116.81-149.92 215.67-149.92 23.45 0 46.09 3.52 67.4 10.039 32.6 9.961 42.6-0.039 52.6-10.039l50-50c10-10 10-20-7.37-29.949-48.59-25.563-103.91-40.051-162.63-40.051-193.3 0-350 156.7-350 350v40c0 10 10 20 20 20h540c10 0 9.7 9.26 5.65 20.14-32.53 87.51-116.81 149.86-215.65 149.86-23.43 0-46.04-3.52-67.32-10.05-32.68-9.95-42.68 0.05-52.68 10.05l-50 50c-10 10-10 20 7.59 30.12 48.54 25.47 103.79 39.88 162.41 39.88 193.3 0 350-156.7 350-350zm170 270c0 40 50 80 100 80 20 0 20-20 20-20v-1280c0-150-120-215.68-170-230-34.24-8.9414-51.86-10.148-60 10-11.21 26.879 8.31 40.57 20 50 11.65 9.4687 90 50 90 170zm870-560c0-126.5-103.5-230-230-230h-220c-5.5 0-10 4.5-10 10v220c0 126.5 103.5 230 230 230h220c5.5 0 10-4.5 10-10zm100 930c-50 0-100-40-100-80v-490c0-5.15-4.83-10-10-10h-220c-192.5 0-350-157.5-350-350v-310c0-22 18-40 40-40h310c192.5 0 350 157.5 350 350v910s0 20-20 20"/></g></g></svg>
